<svg xmlns="http://www.w3.org/2000/svg" viewBox="0 0 217.37 217.39">
    <defs>
        <style>.cls-1{fill:#13202e;}.cls-2{fill:#fff;}</style>
    </defs>
    <g id="Layer_2" data-name="Layer 2">
        <g id="Layer_1-2" data-name="Layer 1">
            <rect id="Rectangle_102" data-name="Rectangle 102" class="cls-1" x="5.03" y="5.06" width="207.3"
                  height="207.3" rx="18.29"/>
            <path id="Path_212" data-name="Path 212" class="cls-1"
                  d="M194,217.39H23.33A23.35,23.35,0,0,1,0,194.07V23.32A23.37,23.37,0,0,1,23.33,0H194a23.37,23.37,0,0,1,23.33,23.32V194.07A23.35,23.35,0,0,1,194,217.39ZM23.33,10.09A13.28,13.28,0,0,0,10.07,23.32V194.06a13.28,13.28,0,0,0,13.26,13.26H194a13.28,13.28,0,0,0,13.26-13.26V23.32A13.28,13.28,0,0,0,194,10.06Z"/>
            <path class="cls-2"
                  d="M97.6,80.78A17.45,17.45,0,0,1,110,75.62h27.11a.58.58,0,0,1,.61.55V143a.48.48,0,0,1-.17.37.57.57,0,0,1-.44.17H124.64a.59.59,0,0,1-.54-.54V87.32H112.75A5.65,5.65,0,0,0,108.68,89L53.91,143.44a.73.73,0,0,1-.4.13H36.18a.52.52,0,0,1-.54-.34.51.51,0,0,1,.13-.61Z"/>
            <path class="cls-2"
                  d="M171.66,143a.48.48,0,0,1-.17.37.57.57,0,0,1-.44.17H158.62a.5.5,0,0,1-.38-.17.48.48,0,0,1-.17-.37V76.23a.61.61,0,0,1,.17-.44.52.52,0,0,1,.38-.17h12.43a.58.58,0,0,1,.61.55V143Z"/>
        </g>
    </g>
</svg>