<?xml version="1.0" encoding="utf-8"?>
<!-- Generator: Adobe Illustrator 25.0.1, SVG Export Plug-In . SVG Version: 6.00 Build 0)  -->
<svg version="1.1" id="Layer_1" xmlns="http://www.w3.org/2000/svg" xmlns:xlink="http://www.w3.org/1999/xlink" x="0px" y="0px"
	 viewBox="0 0 1080 570" style="enable-background:new 0 0 1080 570;" xml:space="preserve">
<style type="text/css">
	.st0{fill:#FFFFFF;}
</style>
<g id="XMLID_194_">
	<path id="XMLID_225_" class="st0" d="M560.93,196.07h2.23v132.58c0,16.75-13.71,30.46-30.46,30.46h-3.65V227.95
		C529.06,210.42,543.4,196.07,560.93,196.07z"/>
	<path id="XMLID_208_" class="st0" d="M387.77,138.47h2.23v125.7l59.05-59.26c12.48-12.52,32.76-12.39,45.07,0.3l1.57,1.62
		l-67.15,67.39c-1.05,1.05-2.15,2-3.3,2.87c1.51,1.06,2.96,2.27,4.31,3.62l66.14,66.38l-2.56,2.64
		c-11.77,12.12-31.15,12.25-43.07,0.28l-60.06-60.28v38.42c0,17.03-13.71,30.97-30.46,30.97h-3.65V170.87
		C355.9,153.05,370.24,138.47,387.77,138.47z"/>
	<path id="XMLID_205_" class="st0" d="M31.6,325.8l0.01-2.27l0.38-25.48c-0.01-3.35-0.1-6.36,0.54-9.7v-1.74h0.38
		c3.35-13.37,15.65-23.62,29.78-23.62c23.69,0,47.38,0,71.07,0c3.06-1.74,4.96-2.69,5.75-7.43c0-6.69,0-13.36,0-20.05
		c-0.57-2.11-1.66-4.13-4.74-4.86H63.52c-17.53,0-31.67-14.47-31.59-32.3l0.01-2.27h112.58c17.02,0,30.71,17.22,29.33,35.28v126.7
		h-3.65c-8.69,0-16.56-3.75-22.12-9.74c-5.88,6.7-14.45,10.89-23.94,10.8l-60.78-0.59c-14.66-0.14-27.05-10.46-30.67-24.27h-0.14
		v-0.56C31.91,331.16,31.59,328.52,31.6,325.8L31.6,325.8z M139.53,286.07c-5.83,6.9-14.23,11.14-23.78,11.11l-42.39-0.11
		c-2.3-0.01-5.48,0.91-5.97,5.72l-0.12,17.25c-0.05,5.5,4.05,4.86,6.69,4.86h60.19c2.87-0.19,5.38-2.28,5.38-5.36V286.07z"/>
	
		<ellipse id="XMLID_204_" transform="matrix(0.9239 -0.3827 0.3827 0.9239 -20.0312 221.0926)" class="st0" cx="545.74" cy="160.9" rx="20.24" ry="20.24"/>
	<path id="XMLID_203_" class="st0" d="M214.76,315.64l66.56-85.17H230.1c-17.53,0-31.22-14.63-31.34-32.16l-0.01-2.23h112.94
		c27.22,0,29.72,17,14.33,36.71l-71.76,91.76l51.58-0.22c16.75-0.07,30.7,14.38,30.81,31.13l0.02,3.65l-111.49,0
		c-14.25,0-20.69-4-23.54-8.98C195.92,340.11,204.7,328.52,214.76,315.64z"/>
	<path id="XMLID_202_" class="st0" d="M748.75,248.79h-77.51c-12.24,0-22.17,9.93-22.17,22.17v65.98c0,12.24,9.93,22.17,22.17,22.17
		h77.51l0,0c0-10.55-8.55-19.1-19.1-19.1h-49.98c-5.75,0-10.41-4.66-10.41-10.41v-50.31c0-5.75,4.66-10.41,10.41-10.41h49.98
		c10.55,0,19.1-8.55,19.1-19.1V248.79z"/>
	<g id="XMLID_197_">
		<g id="XMLID_198_">
			<path id="XMLID_199_" class="st0" d="M851.82,269.61c3.87,0,7.03,3.15,7.03,7.03v54.63c0,3.87-3.15,7.03-7.03,7.03h-57.87
				c-3.87,0-7.03-3.15-7.03-7.03v-54.63c0-3.87,3.15-7.03,7.03-7.03H851.82 M851.82,248.79h-57.87c-15.38,0-27.85,12.47-27.85,27.85
				v54.63c0,15.38,12.47,27.85,27.85,27.85h57.87c15.38,0,27.85-12.47,27.85-27.85v-54.63C879.66,261.26,867.2,248.79,851.82,248.79
				L851.82,248.79z"/>
		</g>
	</g>
	<path id="XMLID_196_" class="st0" d="M907.74,276.1v83.01h3.22c10.41,0,18.86-8.44,18.86-18.86v-62.47c0-4.92,3.99-8.91,8.91-8.91
		h25.08c4.92,0,8.91,3.99,8.91,8.91v62.47c0,10.41,8.44,18.86,18.86,18.86h4.49v-81.8c0-4.92,3.99-8.91,8.91-8.91h21.92
		c4.92,0,8.91,3.99,8.91,8.91v62.94c0,10.41,8.44,18.86,18.86,18.86h1.33V276.1c0-15.08-12.23-27.31-27.31-27.31h-32.49
		c-2.52,0-4.96,0.91-6.87,2.57l-3.99,3.48l-3.99-3.48c-1.9-1.66-4.34-2.57-6.87-2.57l-39.43,0
		C919.97,248.79,907.74,261.02,907.74,276.1z"/>
	
		<ellipse id="XMLID_195_" transform="matrix(0.0113 -0.9999 0.9999 0.0113 256.1396 947.2806)" class="st0" cx="607.11" cy="344.11" rx="14.83" ry="14.83"/>
</g>
</svg>
