<svg xmlns="http://www.w3.org/2000/svg" viewBox="0 0 100 100"><defs><style>.cls-1{isolation:isolate;}.cls-2{fill:#13202e;}.cls-3{fill:none;}</style></defs><g id="Layer_2" data-name="Layer 2"><g id="Layer_1-2" data-name="Layer 1"><g class="cls-1"><path class="cls-2" d="M18.72,50a17.19,17.19,0,0,1,6.86,7.21,21.4,21.4,0,0,1,2.65,10.29V77.73a4.1,4.1,0,0,0,1.23,3.09A4.47,4.47,0,0,0,32.66,82H43.05V97H30.42A17.15,17.15,0,0,1,18,92.11a16.12,16.12,0,0,1-5-12V67.45a10.52,10.52,0,0,0-2.3-6.76,8.39,8.39,0,0,0-5.52-3.31L.45,57V43l4.71-.49a8.39,8.39,0,0,0,5.52-3.31A10.49,10.49,0,0,0,13,32.45V19.87a16.15,16.15,0,0,1,4.95-12A17.1,17.1,0,0,1,30.42,3H43.05V18H32.66a4.38,4.38,0,0,0-3.2,1.21,4.16,4.16,0,0,0-1.23,3.11V32.45a21.3,21.3,0,0,1-2.65,10.3A17.28,17.28,0,0,1,18.72,50Z"/><path class="cls-2" d="M81.28,50a17.21,17.21,0,0,1-6.86-7.22A21.36,21.36,0,0,1,71.77,32.5V22.27a4.16,4.16,0,0,0-1.23-3.11A4.38,4.38,0,0,0,67.34,18H57V3H69.58A17.15,17.15,0,0,1,82.05,7.89a16.13,16.13,0,0,1,5,12V32.5a10.48,10.48,0,0,0,2.3,6.75,8.36,8.36,0,0,0,5.52,3.31l4.71.49V57l-4.71.49a8.36,8.36,0,0,0-5.52,3.31A10.48,10.48,0,0,0,87,67.5V80.13a16.14,16.14,0,0,1-5,12A17.1,17.1,0,0,1,69.58,97H57V82H67.34a4.47,4.47,0,0,0,3.2-1.17,4.1,4.1,0,0,0,1.23-3.09V67.5a21.33,21.33,0,0,1,2.65-10.31A17.25,17.25,0,0,1,81.28,50Z"/></g><rect class="cls-3" width="100" height="100"/></g></g></svg>