<svg width="163" height="159" viewBox="0 0 163 159" fill="none" xmlns="http://www.w3.org/2000/svg">
<path d="M40.9338 119.704C43.3674 121.109 45.7991 122.114 48.1613 122.692C50.6129 123.291 52.9931 123.428 55.2357 123.1C60.1528 122.381 64.4065 119.46 67.8786 114.417C73.0235 106.944 79.1959 103.444 86.7486 103.715C93.2939 103.951 99.9402 106.934 106.368 109.819C112.205 112.439 117.718 114.913 122.681 115.153C128.073 115.413 132.095 112.916 135.341 107.295C139.163 100.675 141.856 94.2915 143.345 88.3229C144.782 82.566 145.141 77.0195 144.413 71.8373C143.711 66.8337 141.97 62.0045 139.241 57.4836C136.597 53.1043 132.938 48.8697 128.366 44.8975C125.426 42.3429 122.302 40.1047 119.081 38.2451C115.572 36.2194 111.842 34.5818 107.993 33.3777C104.67 32.3381 101.153 31.5897 97.5394 31.1532C91.1515 30.3815 85.6051 30.6635 80.4716 31.0183C76.0843 31.3216 70.6342 32.5495 64.7104 34.5691C58.8308 36.5737 52.6335 39.3062 46.7885 42.4713C40.6833 45.7773 35.0386 49.522 30.4645 53.3006C25.4546 57.4393 21.7491 61.5561 19.451 65.5367C17.1424 69.5352 16.0856 74.2725 16.3101 79.6168C16.5158 84.5163 17.8405 89.8989 20.1408 95.1827C22.3484 100.253 25.4267 105.194 29.0432 109.47C32.6859 113.777 36.7976 117.316 40.9338 119.704ZM40.4338 120.57C23.0712 110.546 8.51981 82.47 18.5849 65.0367C28.4578 47.9363 62.0459 31.2898 80.4026 30.0207C89.4483 29.3954 104.316 28.5658 119.581 37.3791C122.727 39.1957 125.889 41.4205 129.022 44.1427C147.356 60.071 151.978 80.4782 136.207 107.795C120.435 135.112 89.9211 84.1657 68.7022 114.984C61.0249 126.134 50.2775 126.254 40.4338 120.57Z" fill="#2A415B"/>
</svg>
