<svg width="139" height="150" viewBox="0 0 139 150" fill="none" xmlns="http://www.w3.org/2000/svg">
<path d="M117.902 103.315C118.638 100.571 118.99 97.9353 118.95 95.481C118.908 92.934 118.441 90.5797 117.563 88.4834C115.639 83.8934 111.774 80.5342 106.075 78.4991C97.6151 75.4781 92.7064 70.4021 91.0687 62.9811C89.6504 56.555 90.8387 49.2985 91.9878 42.2809C93.0322 35.903 94.0187 29.8789 92.9999 24.9823C91.8947 19.6697 88.4952 16.4218 82.3015 14.7612C74.9993 12.8034 68.2084 11.8805 62.1172 12.0183C56.2422 12.1513 50.839 13.2759 46.0576 15.361C41.4392 17.375 37.2482 20.3524 33.6009 24.2106C30.0671 27.9487 26.9272 32.636 24.2683 38.1423C22.5583 41.6838 21.1977 45.3199 20.2246 48.9497C19.1644 52.9038 18.5321 56.9707 18.3453 61.0374C18.184 64.5482 18.3505 68.1702 18.8404 71.8029C19.7062 78.2243 21.3703 83.5462 23.0006 88.4467C24.3938 92.6349 26.9401 97.611 30.364 102.837C33.7622 108.024 37.9377 113.326 42.439 118.171C47.1405 123.231 52.1464 127.726 56.9158 131.171C62.138 134.942 67.0111 137.451 71.3997 138.628C75.8063 139.809 80.6067 139.578 85.6677 137.94C90.3105 136.438 95.1354 133.718 99.6209 130.075C103.926 126.579 107.888 122.269 111.079 117.612C114.293 112.921 116.652 107.977 117.902 103.315ZM118.868 103.574C113.625 123.13 90.3761 144.751 71.1407 139.594C52.2726 134.535 27.8803 106.284 22.0516 88.7624C19.1794 80.1284 14.6486 65.8848 19.2586 48.6907C20.2088 45.1466 21.5464 41.4794 23.3677 37.7075C34.0251 15.6365 52.4196 5.71396 82.5605 13.7952C112.701 21.8765 71.5469 65.1073 106.412 77.5573C119.026 82.0619 121.841 92.4861 118.868 103.574Z" fill="#2A415B"/>
</svg>
