<svg xmlns="http://www.w3.org/2000/svg" viewBox="0 0 100 100"><defs><style>.cls-1{fill:#13202e;}.cls-2{fill:none;}</style></defs><g id="Layer_2" data-name="Layer 2"><g id="Layer_1-2" data-name="Layer 1"><path id="Path_297" data-name="Path 297" class="cls-1" d="M10.89,92.64c0-7.38-.23-14.44,0-21.48C11.47,58.06,23.05,46.44,36.18,46c9.3-.32,18.63-.35,27.92,0C77,46.51,88.41,58.14,89,71c.29,6.41.2,12.84,0,19.25a4.7,4.7,0,0,1-2.23,3.42C67.53,102.52,31.19,102,10.89,92.64Z"/><path id="Path_298" data-name="Path 298" class="cls-1" d="M71,21A20.82,20.82,0,0,1,50.57,42.2h-.38A20.83,20.83,0,0,1,29,21.72v-.37A21,21,0,0,1,49.77,0h0A21,21,0,0,1,71,20.91Z"/><rect class="cls-2" width="100" height="100"/></g></g></svg>