<svg xmlns="http://www.w3.org/2000/svg" width="64.387" height="82.135" viewBox="0 0 64.387 82.135">
  <g id="Group_380" data-name="Group 380" transform="translate(1225.573 -1010.698)">
    <path id="Path_297" data-name="Path 297" d="M-1225.5,1096.726c0-6.06-.192-11.863.042-17.648.434-10.758,9.942-20.3,20.73-20.683,7.636-.268,15.3-.287,22.932.018,10.547.421,19.964,9.972,20.454,20.546.244,5.261.167,10.543,0,15.809a3.844,3.844,0,0,1-1.833,2.81C-1178.981,1104.838-1208.829,1104.417-1225.5,1096.726Z" transform="translate(0 -9.936)" fill="#13202e"/>
    <path id="Path_298" data-name="Path 298" d="M-1172.228,1027.916a17.1,17.1,0,0,1-17.052,17.45,17.1,17.1,0,0,1-17.374-17.132A17.28,17.28,0,0,1-1189.6,1010.7,17.273,17.273,0,0,1-1172.228,1027.916Z" transform="translate(-3.958 0)" fill="#13202e"/>
  </g>
</svg>
