<svg xmlns="http://www.w3.org/2000/svg" viewBox="0 0 100 100"><defs><style>.cls-1{fill:#13202e;}.cls-2{fill:none;}</style></defs><g id="Layer_2" data-name="Layer 2"><g id="Layer_1-2" data-name="Layer 1"><path id="Path_288" data-name="Path 288" class="cls-1" d="M20.61,30.08l-.55.52-6.43,6.45a1.7,1.7,0,0,1-2.38.39,1.8,1.8,0,0,1-.39-.39L7.17,33.38A1.69,1.69,0,0,1,6.81,31a1.54,1.54,0,0,1,.36-.36l7.06-7c-1.12-1.1-2.23-2.15-3.32-3.23q-4.26-4.23-8.49-8.49a1.6,1.6,0,0,1-.11-2.26l.12-.11Q6,6,9.5,2.47a1.62,1.62,0,0,1,2.29-.15,1.1,1.1,0,0,1,.21.22l10,10c.54.54,1.05,1.11,1.62,1.72l6.93-7c1.05-1.06,1.86-1.06,2.93,0S35.89,9.73,37.09,11a1.67,1.67,0,0,1,.29,2.35,1.59,1.59,0,0,1-.29.29L30.6,20.06c-.17.16-.33.34-.32.38,1.21,1.3,2.36,2.64,3.63,3.88q9.18,9,18.4,17.9L71.85,61.16C75.56,64.76,79.24,68.38,83,72q4.4,4.25,8.85,8.45a6.25,6.25,0,0,1,1.6,2.45c1.46,4.06,2.94,8.11,4.37,12.18A5.9,5.9,0,0,1,98.06,97a1,1,0,0,1-.78,1.11.81.81,0,0,1-.31,0,5.57,5.57,0,0,1-1.86-.25c-4.1-1.44-8.19-2.93-12.29-4.4a6.44,6.44,0,0,1-2.51-1.7Q73.88,85,67.39,78.29q-10-10.31-20-20.59L33,42.88l-12-12.3C20.92,30.43,20.78,30.27,20.61,30.08Z"/><path id="Path_289" data-name="Path 289" class="cls-1" d="M62,48,51.89,38.17,70,20.58l-6.91-6.86c-1.11-1.1-1.11-1.86,0-3l3.52-3.51A1.71,1.71,0,0,1,69,6.82a1.68,1.68,0,0,1,.42.42l7,7c.38-.41.75-.84,1.15-1.24L88.08,2.49a1.61,1.61,0,0,1,2.28-.16,1.07,1.07,0,0,1,.19.18q3.49,3.48,7,7a1.63,1.63,0,0,1,.18,2.31,1.37,1.37,0,0,1-.25.23l-11,11c-.19.19-.41.36-.67.58l1.45,1.42,5.64,5.66A1.67,1.67,0,0,1,93.17,33a1.64,1.64,0,0,1-.3.29Q91,35.21,89.16,37.07a1.67,1.67,0,0,1-2.32.4,1.61,1.61,0,0,1-.39-.39q-3.4-3.37-6.79-6.77a1.33,1.33,0,0,1-.15-.32Z"/><path id="Path_290" data-name="Path 290" class="cls-1" d="M38,51.72,48.18,62.25c-1.35,1.41-2.65,2.77-4,4.13L28.31,82.76c-3,3.07-5.91,6.19-8.92,9.23a6.55,6.55,0,0,1-2.27,1.42c-4,1.51-8,3-12,4.37a6.27,6.27,0,0,1-2,.31,1,1,0,0,1-1.11-1.17,6.1,6.1,0,0,1,.28-1.85c1.45-4.09,3-8.14,4.41-12.23a9,9,0,0,1,2.65-3.41L24.06,65.19q6.69-6.48,13.36-13Z"/><rect class="cls-2" width="100" height="100"/></g></g></svg>