<svg xmlns="http://www.w3.org/2000/svg" width="102.589" height="102.548" viewBox="0 0 102.589 102.548">
  <g id="Group_378" data-name="Group 378" transform="translate(969.333 -810.496)">
    <path id="Path_288" data-name="Path 288" d="M-949.376,840.529c-.225.212-.41.378-.585.554q-3.431,3.44-6.858,6.881a1.818,1.818,0,0,1-2.948,0q-1.968-1.957-3.935-3.916a1.8,1.8,0,0,1-.006-2.9c2.474-2.462,4.949-4.922,7.534-7.494-1.2-1.169-2.387-2.293-3.543-3.443q-4.54-4.515-9.058-9.052a1.705,1.705,0,0,1,.016-2.533q3.759-3.78,7.538-7.539a1.732,1.732,0,0,1,2.667.076q5.329,5.333,10.649,10.673c.577.579,1.123,1.189,1.732,1.836l7.385-7.444c1.122-1.131,1.985-1.13,3.12.01q1.937,1.944,3.869,3.893a1.786,1.786,0,0,1,0,2.813q-3.458,3.456-6.924,6.9c-.178.177-.347.362-.339.407,1.286,1.382,2.518,2.818,3.866,4.137q9.786,9.569,19.624,19.084,10.411,10.1,20.831,20.2c3.953,3.835,7.885,7.692,11.846,11.52q4.693,4.536,9.44,9.018a6.571,6.571,0,0,1,1.708,2.606c1.558,4.328,3.133,8.651,4.658,12.99a6.431,6.431,0,0,1,.293,2.037,1.022,1.022,0,0,1-1.161,1.184,6.057,6.057,0,0,1-1.976-.266c-4.379-1.537-8.74-3.126-13.109-4.692a6.888,6.888,0,0,1-2.681-1.816q-6.862-7.182-13.775-14.316-10.637-10.991-21.3-21.96-7.664-7.9-15.333-15.795-6.372-6.561-12.749-13.116C-949.041,840.9-949.192,840.729-949.376,840.529Z" fill="#13202e"/>
    <path id="Path_289" data-name="Path 289" d="M-765.535,859.694l-10.8-10.494,19.317-18.754c-2.482-2.461-4.932-4.886-7.377-7.316-1.18-1.172-1.177-1.987,0-3.16q1.876-1.871,3.758-3.736a1.822,1.822,0,0,1,2.991-.009l7.469,7.441c.409-.444.8-.9,1.228-1.329q5.6-5.6,11.209-11.185a1.724,1.724,0,0,1,2.625.025q3.733,3.717,7.45,7.449a1.75,1.75,0,0,1-.074,2.716q-5.863,5.868-11.732,11.731c-.208.207-.441.388-.715.627.565.551,1.061,1.025,1.546,1.51q3.009,3.013,6.012,6.033a1.772,1.772,0,0,1-.008,2.8q-1.975,2-3.959,3.982a1.771,1.771,0,0,1-2.891.012q-3.622-3.6-7.234-7.219a1.317,1.317,0,0,1-.163-.344Z" transform="translate(-139.69 -0.044)" fill="#13202e"/>
    <path id="Path_290" data-name="Path 290" d="M-930.748,1002.753l10.9,11.233c-1.437,1.5-2.828,2.955-4.232,4.4q-8.477,8.735-16.958,17.466c-3.174,3.277-6.3,6.6-9.511,9.84a6.925,6.925,0,0,1-2.421,1.514c-4.261,1.61-8.549,3.151-12.844,4.669a6.677,6.677,0,0,1-2.156.321c-.808,0-1.2-.425-1.181-1.243a6.368,6.368,0,0,1,.295-1.976c1.548-4.353,3.175-8.677,4.7-13.036a9.615,9.615,0,0,1,2.831-3.632q7.874-7.6,15.753-15.19,7.14-6.906,14.253-13.84C-931.154,1003.12-930.982,1002.968-930.748,1002.753Z" transform="translate(-0.129 -139.153)" fill="#13202e"/>
  </g>
</svg>
