<svg xmlns="http://www.w3.org/2000/svg" width="134.838" height="90.792" viewBox="0 0 134.838 90.792">
  <g id="Group_379" data-name="Group 379" transform="translate(1274.771 -993.476)">
    <path id="Path_291" data-name="Path 291" d="M-1225.5,1094.73c0-5.746-.182-11.248.04-16.734.412-10.2,9.427-19.251,19.656-19.611,7.24-.254,14.506-.272,21.744.017,10,.4,18.93,9.456,19.394,19.481.231,4.989.158,10,0,14.99a3.644,3.644,0,0,1-1.738,2.664C-1181.395,1102.421-1209.7,1102.022-1225.5,1094.73Z" transform="translate(-12.309 -16.19)" fill="#13202e"/>
    <path id="Path_292" data-name="Path 292" d="M-1224.033,1049.261c-15.614,5.91-20.684,17.908-19.375,34.466-7.348-.98-14.267-1.516-21.014-2.893-10.413-2.123-10.4-2.368-10.34-12.886.021-3.487-.167-7.075.559-10.44a20.461,20.461,0,0,1,18.282-16.307c7.2-.595,14.479-.27,21.723-.289,3.73-.009,6.872.937,8.082,5.11C-1225.788,1047.154-1224.8,1048.1-1224.033,1049.261Z" transform="translate(0 -11.85)" fill="#13202e"/>
    <path id="Path_293" data-name="Path 293" d="M-1162.555,1049.406a44.534,44.534,0,0,1,3.388-5.744,5.609,5.609,0,0,1,3.533-2.18c8.852-.183,17.767-.727,26.548.078,9.038.829,16.489,9.649,17.022,18.783.3,5.108.223,10.245.08,15.363a3.6,3.6,0,0,1-1.888,2.615c-9.171,3.621-18.794,4.728-29.227,4.985C-1142.024,1067.72-1146.668,1055.322-1162.555,1049.406Z" transform="translate(-28.075 -11.923)" fill="#13202e"/>
    <path id="Path_294" data-name="Path 294" d="M-1174.012,1027.024a16.21,16.21,0,0,1-16.168,16.546,16.218,16.218,0,0,1-16.474-16.245,16.385,16.385,0,0,1,16.172-16.626A16.379,16.379,0,0,1-1174.012,1027.024Z" transform="translate(-17.042 -4.309)" fill="#13202e"/>
    <path id="Path_295" data-name="Path 295" d="M-1223.246,1010.027a16.364,16.364,0,0,1-16.505,16.275,16.392,16.392,0,0,1-16.254-16.563,16.4,16.4,0,0,1,16.547-16.262A16.3,16.3,0,0,1-1223.246,1010.027Z" transform="translate(-4.695 0)" fill="#13202e"/>
    <path id="Path_296" data-name="Path 296" d="M-1157.455,1009.725a16.322,16.322,0,0,1,16.515-16.248,16.384,16.384,0,0,1,16.231,16.563,16.358,16.358,0,0,1-16.543,16.261A16.354,16.354,0,0,1-1157.455,1009.725Z" transform="translate(-29.351 0)" fill="#13202e"/>
  </g>
</svg>
