<svg xmlns="http://www.w3.org/2000/svg" viewBox="0 0 100 100"><defs><style>.cls-1{fill:#13202e;}.cls-2{fill:none;}</style></defs><g id="Layer_2" data-name="Layer 2"><g id="Layer_1-2" data-name="Layer 1"><path id="Path_291" data-name="Path 291" class="cls-1" d="M27.41,79.42c0-4.26-.13-8.34,0-12.41A15.65,15.65,0,0,1,42,52.46c5.37-.18,10.76-.2,16.13,0,7.41.29,14,7,14.38,14.44.17,3.7.12,7.42,0,11.12a2.74,2.74,0,0,1-1.29,2C60.12,85.12,39.13,84.83,27.41,79.42Z"/><path id="Path_292" data-name="Path 292" class="cls-1" d="M37.63,48.92C26.05,53.3,22.29,62.2,23.26,74.48c-5.45-.73-10.58-1.13-15.59-2.15C0,70.76,0,70.58,0,62.78A37.69,37.69,0,0,1,.42,55,15.17,15.17,0,0,1,14,42.94c5.34-.44,10.74-.2,16.11-.22,2.77,0,5.1.7,6,3.79A10.62,10.62,0,0,0,37.63,48.92Z"/><path id="Path_293" data-name="Path 293" class="cls-1" d="M62.4,49a33,33,0,0,1,2.51-4.26,4.24,4.24,0,0,1,2.62-1.62c6.57-.13,13.18-.54,19.69.06,6.71.62,12.23,7.16,12.63,13.93.22,3.79.16,7.6.06,11.39a2.68,2.68,0,0,1-1.4,1.94c-6.81,2.69-13.94,3.51-21.68,3.7C77.63,62.55,74.18,53.36,62.4,49Z"/><path id="Path_294" data-name="Path 294" class="cls-1" d="M62.09,38A12,12,0,0,1,50.32,50.29H50.1A12,12,0,0,1,37.88,38.45v-.21a12.15,12.15,0,0,1,12-12.33h0A12.15,12.15,0,0,1,62.09,38Z"/><path id="Path_295" data-name="Path 295" class="cls-1" d="M34.73,28.61a12.14,12.14,0,0,1-12.2,12.07h0A12.17,12.17,0,0,1,10.43,28.42v0A12.16,12.16,0,0,1,22.7,16.33h0a12.09,12.09,0,0,1,12,12.16Z"/><path id="Path_296" data-name="Path 296" class="cls-1" d="M65.24,28.38a12.11,12.11,0,0,1,12.16-12h.09a12.15,12.15,0,0,1,12,12.27v0a12.13,12.13,0,0,1-12.2,12.06h-.07a12.13,12.13,0,0,1-12-12.24Z"/><rect class="cls-2" width="100" height="100"/></g></g></svg>