<svg xmlns="http://www.w3.org/2000/svg" xmlns:xlink="http://www.w3.org/1999/xlink" width="652.788" height="572.146" viewBox="0 0 652.788 572.146"><defs><linearGradient id="a" x1="1" y1="0.5" x2="0" y2="0.5" gradientUnits="objectBoundingBox"><stop offset="0" stop-color="#fc147f"/><stop offset="0.36" stop-color="#480ac2"/><stop offset="0.707" stop-color="#e08250"/><stop offset="1" stop-color="#3ae4f6"/></linearGradient></defs><g transform="matrix(-0.966, -0.259, 0.259, -0.966, 532.804, 581.348)"><g transform="translate(50.268 17.013)"><g transform="translate(0 0)"><path d="M303.657,0a161.431,161.431,0,0,1,32.578,3.233c28.96,5.955,54.839,20.172,76.92,42.253,20,20,35.176,44.228,45.2,72.13a195.939,195.939,0,0,0-45.5-71.831C382.815,15.745,345.594.465,303.417.464a203.782,203.782,0,0,0-52.977,7.4C195.8,22.574,138.08,58.3,87.915,108.469,39.725,156.658,10.186,207.6,2.491,255.795c-8.6,53.879,9.261,103.425,53.1,147.26,13.952,13.953,28.863,18.226,46.924,13.452,16.125-4.263,32.7-15.17,50.257-26.717,23.791-15.652,48.392-31.837,75.325-34.1,23.3-1.961,49.082,14.271,74.013,29.969,33.223,20.92,64.605,40.681,87.886,17.4,41.47-41.471,69.934-100.487,79.1-161.421a306.066,306.066,0,0,1-23.2,79.792c-14.125,31.591-32.833,59.156-55.605,81.928a34.069,34.069,0,0,1-19.125,10.137c-6.431,1.034-13.488.311-21.573-2.209-15.017-4.681-30.9-14.681-47.714-25.269-24.871-15.661-50.587-31.856-73.752-29.9C201.3,358.366,176.746,374.521,153,390.143c-17.582,11.567-34.188,22.492-50.38,26.773-18.223,4.816-33.262.508-47.332-13.562C32.873,380.939,17.064,356.665,8.3,331.2a154.589,154.589,0,0,1-6.226-75.474c3.941-24.686,13.519-50.069,28.469-75.447C44.848,156,64.05,131.734,87.615,108.169a445.7,445.7,0,0,1,76.85-61.813c28.916-18.259,57.805-31.348,85.864-38.9A205.272,205.272,0,0,1,303.657,0Z" transform="translate(0)" fill="url(#a)"/></g><g transform="translate(0 0)"><path d="M412.5,45.724a167.13,167.13,0,0,0-17.823-15.5,151.546,151.546,0,0,0-18.8-12.057,145.323,145.323,0,0,0-19.637-8.8A147.58,147.58,0,0,0,335.9,3.644c-26.322-5.413-55.126-4-85.612,4.211-7.154,1.926-14.477,4.253-21.768,6.918-7.135,2.608-14.413,5.6-21.632,8.9A359.16,359.16,0,0,0,164.6,46.681a428.26,428.26,0,0,0-40.053,28.735,465.26,465.26,0,0,0-36.687,32.99c-23.527,23.527-42.7,47.747-56.975,71.987-3.645,6.188-7.014,12.456-10.012,18.632-3.034,6.248-5.77,12.568-8.131,18.783-2.391,6.292-4.463,12.644-6.157,18.881A181.878,181.878,0,0,0,2.5,255.616,165.667,165.667,0,0,0,.57,274.54,155.549,155.549,0,0,0,.9,293.409a151.1,151.1,0,0,0,2.677,18.765A152.966,152.966,0,0,0,8.7,330.784a161.461,161.461,0,0,0,7.66,18.407,177.2,177.2,0,0,0,10.3,18.155A201.231,201.231,0,0,0,39.679,385.2a234.667,234.667,0,0,0,15.855,17.5,66.953,66.953,0,0,0,5.73,5.128,53.9,53.9,0,0,0,5.752,3.992,45.688,45.688,0,0,0,5.775,2.931A41.474,41.474,0,0,0,78.6,416.69a40.8,40.8,0,0,0,5.842,1.037,43.424,43.424,0,0,0,5.887.2,49.5,49.5,0,0,0,5.937-.569,59.333,59.333,0,0,0,5.992-1.266,82.268,82.268,0,0,0,12.16-4.343c3.864-1.7,7.923-3.756,12.408-6.281,8.364-4.709,16.749-10.225,25.626-16.065,11.722-7.712,23.843-15.686,36.378-22a134.1,134.1,0,0,1,19.159-8.011,97.539,97.539,0,0,1,9.85-2.638,82.7,82.7,0,0,1,10.039-1.488c23.374-1.967,49.183,14.285,74.142,30,8.064,5.077,16.4,10.328,24.373,14.752,4.283,2.377,8.138,4.343,11.788,6.012a96.358,96.358,0,0,0,11.4,4.437,58.612,58.612,0,0,0,10.925,2.369,38.693,38.693,0,0,0,10.358-.181,32.442,32.442,0,0,0,4.945-1.2,31.922,31.922,0,0,0,4.781-2.015,34.418,34.418,0,0,0,4.613-2.9,40.36,40.36,0,0,0,4.437-3.849c5.7-5.7,11.244-11.825,16.475-18.2,5.161-6.289,10.134-12.967,14.783-19.847a288.641,288.641,0,0,0,24.217-43.691A304.062,304.062,0,0,0,461.749,273.5a298.439,298.439,0,0,0,8.519-49.33,273.776,273.776,0,0,0-.134-49.324c-.776-8.14-1.945-16.238-3.478-24.071a230.844,230.844,0,0,0-5.841-23.364,214.452,214.452,0,0,0-8.269-22.421,200.685,200.685,0,0,0-10.764-21.244,190.914,190.914,0,0,0-13.325-19.834A186.07,186.07,0,0,0,412.5,45.724m.3-.3c92.426,92.426,69.561,265.143-22.865,357.569-41.129,41.129-108.133-51.844-162.029-47.308-66.9,5.631-121.377,98.6-172.673,47.308-92.426-92.426-60.1-202.46,32.327-294.886S320.377-47,412.8,45.424Z" transform="translate(0.203 0.212)" fill="#1f354d"/><path d="M303.657,0a161.437,161.437,0,0,1,32.578,3.233c28.96,5.956,54.839,20.172,76.92,42.253,22.312,22.312,38.62,49.885,48.47,81.952,9.245,30.1,12.434,62.732,9.479,97A304.579,304.579,0,0,1,445.9,321.426c-14.125,31.591-32.833,59.156-55.606,81.928a34.067,34.067,0,0,1-19.125,10.137c-6.432,1.034-13.488.311-21.573-2.209-15.017-4.681-30.9-14.681-47.713-25.269-24.871-15.661-50.587-31.858-73.75-29.9C201.3,358.366,176.747,374.52,153,390.143c-17.582,11.567-34.189,22.492-50.381,26.773-18.223,4.816-33.261.508-47.332-13.562C32.874,380.939,17.064,356.664,8.3,331.2a154.591,154.591,0,0,1-6.226-75.474c3.941-24.686,13.519-50.069,28.469-75.447C44.848,156,64.05,131.734,87.615,108.169a445.7,445.7,0,0,1,76.85-61.813c28.916-18.259,57.805-31.348,85.864-38.9A205.313,205.313,0,0,1,303.657,0Zm61.693,413.094a35.865,35.865,0,0,0,5.682-.439,32.323,32.323,0,0,0,4.913-1.189,31.775,31.775,0,0,0,4.75-2,34.278,34.278,0,0,0,4.584-2.881,40.141,40.141,0,0,0,4.414-3.828c5.7-5.7,11.235-11.815,16.461-18.186,5.156-6.284,10.125-12.956,14.771-19.831a288.409,288.409,0,0,0,24.2-43.659,303.952,303.952,0,0,0,16.625-47.419,298.357,298.357,0,0,0,8.512-49.3,273.547,273.547,0,0,0-.134-49.286c-.775-8.133-1.944-16.225-3.475-24.05a230.66,230.66,0,0,0-5.835-23.342,214.314,214.314,0,0,0-8.261-22.4A200.531,200.531,0,0,0,441.8,84.066a190.824,190.824,0,0,0-13.311-19.812,185.819,185.819,0,0,0-15.935-18.169,166.991,166.991,0,0,0-17.8-15.484,151.261,151.261,0,0,0-18.773-12.04,145.091,145.091,0,0,0-19.609-8.785,147.4,147.4,0,0,0-20.31-5.714C309.774-1.345,281,.072,250.55,8.271c-7.147,1.924-14.464,4.25-21.75,6.912-7.133,2.607-14.406,5.6-21.617,8.892a359,359,0,0,0-42.266,23,428.1,428.1,0,0,0-40.034,28.72,464.959,464.959,0,0,0-36.67,32.975c-23.514,23.515-42.672,47.72-56.942,71.944-3.643,6.183-7.009,12.447-10,18.618-3.031,6.243-5.765,12.557-8.125,18.766-2.388,6.286-4.458,12.631-6.15,18.861a181.665,181.665,0,0,0-4.084,18.906,165.507,165.507,0,0,0-1.924,18.9A155.275,155.275,0,0,0,1.312,293.6a151.074,151.074,0,0,0,2.673,18.738A152.752,152.752,0,0,0,9.1,330.927a161.184,161.184,0,0,0,7.65,18.383,176.967,176.967,0,0,0,10.283,18.133,201.056,201.056,0,0,0,13.014,17.832,234.634,234.634,0,0,0,15.84,17.48,66.73,66.73,0,0,0,5.713,5.112,53.64,53.64,0,0,0,5.728,3.976,45.538,45.538,0,0,0,5.748,2.918,41.4,41.4,0,0,0,5.776,1.936,40.644,40.644,0,0,0,5.812,1.031,43.222,43.222,0,0,0,5.857.2,49.261,49.261,0,0,0,5.912-.567A59.051,59.051,0,0,0,102.4,416.1a81.993,81.993,0,0,0,12.129-4.332c3.857-1.7,7.911-3.75,12.389-6.272,8.358-4.706,16.739-10.22,25.613-16.058,11.727-7.716,23.853-15.693,36.4-22.013a134.275,134.275,0,0,1,19.189-8.023,97.637,97.637,0,0,1,9.871-2.644,82.855,82.855,0,0,1,10.065-1.492c23.445-1.975,49.284,14.3,74.273,30.033,8.065,5.078,16.4,10.326,24.362,14.746,4.279,2.375,8.13,4.339,11.774,6a96.151,96.151,0,0,0,11.378,4.427,58.385,58.385,0,0,0,10.885,2.361A42.169,42.169,0,0,0,365.349,413.094ZM85.861,110.535q1.021-1.034,2.054-2.066a465.26,465.26,0,0,1,36.7-33.005,428.633,428.633,0,0,1,40.074-28.749,359.324,359.324,0,0,1,42.316-23.023c7.221-3.3,14.5-6.295,21.648-8.905,7.3-2.667,14.627-5,21.785-6.924.823-.221,1.647-.439,2.468-.651-.82.212-1.646.429-2.468.651C195.8,22.574,138.079,58.3,87.915,108.468Q86.882,109.5,85.861,110.535ZM411.845,44.782l-.014-.014ZM390.078,402.967c45.357-45.4,74.732-110.475,80.6-178.566,6.184-71.709-14.352-135.143-57.826-178.616-.328-.329-.66-.658-.99-.983q.5.49.99.983A186.238,186.238,0,0,1,428.828,64a191.115,191.115,0,0,1,13.34,19.856,201.045,201.045,0,0,1,10.775,21.267,214.512,214.512,0,0,1,8.277,22.444,231,231,0,0,1,5.846,23.385c1.533,7.84,2.7,15.945,3.481,24.092a273.913,273.913,0,0,1,.134,49.363,298.778,298.778,0,0,1-8.524,49.366,304.371,304.371,0,0,1-16.648,47.485,288.892,288.892,0,0,1-24.235,43.723c-4.652,6.886-9.63,13.568-14.794,19.862C401.272,391.187,395.754,397.285,390.078,402.967Zm-334.562.017a235.1,235.1,0,0,1-15.8-17.441,201.617,201.617,0,0,1-13.041-17.87A177.5,177.5,0,0,1,16.369,349.5,161.647,161.647,0,0,1,8.7,331.065a153.072,153.072,0,0,1-5.129-18.636A151.479,151.479,0,0,1,.891,293.637a155.709,155.709,0,0,1-.329-18.894,165.908,165.908,0,0,1,1.93-18.948q.222-1.388.469-2.785-.247,1.393-.469,2.785C-6.107,309.645,11.734,359.167,55.516,402.984ZM239.2,356.03a50.584,50.584,0,0,0-11.111-.344q-.294.024-.59.052c.2-.018.393-.036.59-.052A50.587,50.587,0,0,1,239.2,356.03ZM148,392.923q2.374-1.555,4.772-3.134,2.03-1.336,4.066-2.672-2.041,1.338-4.065,2.672Q150.359,391.373,148,392.923Zm217.353,20.594a42.616,42.616,0,0,1-4.666-.262,58.818,58.818,0,0,1-10.965-2.377,96.61,96.61,0,0,1-11.428-4.447c-3.654-1.67-7.515-3.639-11.8-6.019-7.064-3.921-14.415-8.49-21.607-13.011,32.16,20.222,62.418,38.249,85.042,15.722a40.493,40.493,0,0,1-4.392,3.8,34.618,34.618,0,0,1-4.64,2.917,32.2,32.2,0,0,1-4.814,2.029,32.711,32.711,0,0,1-4.977,1.2A36.235,36.235,0,0,1,365.349,413.517Zm-255.693.7c9.084-3.4,18.332-8.593,27.837-14.538-3.479,2.176-6.923,4.249-10.364,6.187-4.491,2.528-8.555,4.586-12.426,6.29C112.971,412.915,111.295,413.6,109.656,414.213ZM55.587,403.054l-.067-.066Zm334.375.029.029-.029ZM89.041,418.374a43.193,43.193,0,0,1-4.421-.224,41.046,41.046,0,0,1-5.872-1.042,41.774,41.774,0,0,1-5.835-1.956,45.927,45.927,0,0,1-5.8-2.945,54.2,54.2,0,0,1-5.774-4.007,67.16,67.16,0,0,1-5.725-5.12c13.946,13.934,28.85,18.2,46.9,13.428l.495-.133-.495.133a59.466,59.466,0,0,1-6.013,1.271,49.718,49.718,0,0,1-5.962.571Q89.787,418.373,89.041,418.374Zm300.883-15.252.029-.029Zm-286.9,13.248.014,0Z" transform="translate(0 0)" fill="url(#a)"/></g></g><g transform="translate(77.1 73.504)"><g transform="translate(0 0)"><path d="M231.619,0A121.336,121.336,0,0,1,256.6,2.535c22.317,4.685,42.486,15.913,59.944,33.372a360.217,360.217,0,0,1,49.114,61.107c14.616,23.118,25.158,46.228,31.335,68.689,6.743,24.522,8.065,47.646,3.928,68.729-4.543,23.157-15.689,43.741-33.127,61.179-8.466,8.467-19.91,10.492-34.986,6.193-13.414-3.825-28.467-12.218-43.025-20.334-21.487-11.98-43.7-24.369-61.679-22.855-20.811,1.752-49.265,14.865-76.782,27.547-21.207,9.773-43.135,19.879-61.626,24.846-20.815,5.59-34.918,3.905-43.114-5.153C28.721,287.992,15.839,269.494,8.3,250.881A109.673,109.673,0,0,1,.828,195.7c2.212-17.922,8.925-36.481,19.954-55.162C31.311,122.7,46.1,104.21,64.725,85.581,104.608,45.7,149.3,17.407,190.577,5.921A153.186,153.186,0,0,1,231.619,0ZM347.072,303.618a27.5,27.5,0,0,0,20.423-8.306c33.2-33.2,43.256-77.977,29.089-129.5-11.876-43.187-41.158-90.427-80.34-129.609C292.57,12.532,263.674.491,231.271.49a151.309,151.309,0,0,0-40.58,5.839C149.486,17.8,104.856,46.048,65.024,85.88,27.011,123.893,5.554,160.858,1.248,195.747c-4.678,37.9,10.678,74.852,45.641,109.815,18.046,19.945,61.873-.252,104.256-19.785,27.551-12.7,56.039-25.826,76.924-27.584,1.018-.086,2.051-.128,3.094-.128,17.511,0,38.494,11.7,58.826,23.035,14.537,8.1,29.569,16.485,42.935,20.3A51.934,51.934,0,0,0,347.072,303.618Z" transform="translate(0)" fill="url(#a)"/></g><g transform="translate(0)"><path d="M315.893,36.148a135.36,135.36,0,0,0-14.012-12.24,120.237,120.237,0,0,0-14.67-9.515A111.986,111.986,0,0,0,256.267,2.947,118.624,118.624,0,0,0,240.177.724,130.387,130.387,0,0,0,223.8.642a147.687,147.687,0,0,0-16.575,1.914,170.279,170.279,0,0,0-16.677,3.767c-5.478,1.525-11.091,3.367-16.682,5.477-5.466,2.062-11.049,4.432-16.592,7.041a278.869,278.869,0,0,0-32.531,18.2A345.408,345.408,0,0,0,93.719,59.754C83.885,67.809,74.213,76.58,64.972,85.821c-4.566,4.566-8.949,9.172-13.025,13.687-4.127,4.571-8.058,9.182-11.684,13.7-3.67,4.575-7.133,9.189-10.291,13.714-3.195,4.578-6.171,9.195-8.845,13.723-2.7,4.579-5.175,9.2-7.345,13.729-2.194,4.579-4.144,9.2-5.795,13.731a133.1,133.1,0,0,0-4.192,13.73,118.79,118.79,0,0,0-2.538,13.728,110.075,110.075,0,0,0-.832,13.723,106.848,106.848,0,0,0,.926,13.72,109.18,109.18,0,0,0,2.737,13.715,117.257,117.257,0,0,0,4.6,13.711,131.552,131.552,0,0,0,6.521,13.706,153.08,153.08,0,0,0,8.5,13.7c3.167,4.564,6.707,9.17,10.525,13.689,3.851,4.56,8.094,9.161,12.608,13.676l.008.007.007.008c.265.293.529.57.805.847a22.764,22.764,0,0,0,3.7,2.993,24.11,24.11,0,0,0,4.217,2.17,28.723,28.723,0,0,0,4.714,1.4,37,37,0,0,0,5.182.688,57.51,57.51,0,0,0,11.624-.564,105.492,105.492,0,0,0,13.059-2.794c4.384-1.206,9.027-2.706,14.2-4.583,4.607-1.674,9.527-3.612,15.042-5.925,10.249-4.3,21.036-9.271,31.469-14.078,13.785-6.353,28.038-12.922,41.152-17.983,7.064-2.726,13.248-4.812,18.906-6.376,3.068-.848,6.013-1.548,8.754-2.079a77.421,77.421,0,0,1,8.182-1.164,40.592,40.592,0,0,1,7.014.049,55.572,55.572,0,0,1,7.316,1.186,93.686,93.686,0,0,1,15.359,5.11c10.493,4.4,21.605,10.6,32.353,16.588,7.279,4.058,14.8,8.254,22.013,11.818,3.875,1.916,7.357,3.5,10.644,4.854a96.392,96.392,0,0,0,10.233,3.607,58.049,58.049,0,0,0,9.695,1.955,36.581,36.581,0,0,0,9.027-.092,27.332,27.332,0,0,0,8.251-2.526,28.13,28.13,0,0,0,7.391-5.367,129,129,0,0,0,12.22-14.1,117.526,117.526,0,0,0,9.464-14.918,113.7,113.7,0,0,0,6.86-15.623A116.66,116.66,0,0,0,400.1,234.1c4.117-20.986,2.8-44.011-3.918-68.438-1.574-5.724-3.466-11.584-5.625-17.419-2.111-5.709-4.528-11.531-7.184-17.3a291.594,291.594,0,0,0-18.451-33.794,343.98,343.98,0,0,0-22.893-31.913,367.163,367.163,0,0,0-26.133-29.084m.3-.3c73.025,73.025,124.276,186.379,51.251,259.4-32.5,32.5-96.975-40.642-139.559-37.058-52.379,4.409-149.628,79.068-180.527,48.17-.279-.28-.551-.566-.82-.863C-26.488,232.478-8.353,158.547,64.672,85.522S243.166-37.177,316.192,35.849Z" transform="translate(0.202 0.209)" fill="#1f354d"/><path d="M231.619,0A121.364,121.364,0,0,1,256.6,2.534c22.317,4.686,42.486,15.914,59.945,33.373a360.226,360.226,0,0,1,49.114,61.107c14.616,23.117,25.158,46.228,31.335,68.689,6.742,24.522,8.065,47.646,3.928,68.729-4.543,23.157-15.689,43.741-33.127,61.179-8.466,8.466-19.912,10.491-34.986,6.192-13.413-3.825-28.467-12.218-43.025-20.334C268.3,269.49,246.074,257.1,228.1,258.615c-20.81,1.752-49.264,14.865-76.781,27.546-20.893,9.629-42.5,19.585-60.8,24.622-20.605,5.669-34.706,4.342-43.108-4.059-.283-.283-.555-.568-.828-.87C28.721,287.993,15.839,269.495,8.3,250.881A109.672,109.672,0,0,1,.828,195.7c2.212-17.922,8.925-36.481,19.954-55.162C31.311,122.7,46.1,104.21,64.725,85.581,104.608,45.7,149.3,17.407,190.577,5.921A153.169,153.169,0,0,1,231.619,0ZM346.968,303.171a33.086,33.086,0,0,0,4.706-.324,27.118,27.118,0,0,0,8.187-2.507,27.918,27.918,0,0,0,7.335-5.327,128.631,128.631,0,0,0,12.2-14.076,117.369,117.369,0,0,0,9.448-14.891,113.567,113.567,0,0,0,6.847-15.594,116.5,116.5,0,0,0,4.4-16.183c4.111-20.953,2.794-43.947-3.914-68.342-1.573-5.721-3.464-11.576-5.619-17.4-2.11-5.705-4.525-11.522-7.178-17.29a291.394,291.394,0,0,0-18.438-33.77,343.708,343.708,0,0,0-22.879-31.894,367.027,367.027,0,0,0-26.118-29.067,135.031,135.031,0,0,0-13.991-12.221,119.969,119.969,0,0,0-14.644-9.5A111.748,111.748,0,0,0,256.426,3.363a118.363,118.363,0,0,0-16.061-2.219,130.285,130.285,0,0,0-16.353-.082A147.514,147.514,0,0,0,207.46,2.973,170.089,170.089,0,0,0,190.8,6.736c-5.471,1.523-11.078,3.363-16.664,5.471-5.461,2.061-11.038,4.427-16.577,7.035a278.79,278.79,0,0,0-32.506,18.183,345.163,345.163,0,0,0-31,22.7c-9.829,8.052-19.5,16.818-28.732,26.053-4.563,4.563-8.943,9.165-13.018,13.679-4.123,4.567-8.052,9.174-11.677,13.693-3.667,4.571-7.127,9.182-10.282,13.7-3.192,4.573-6.164,9.185-8.836,13.71-2.7,4.572-5.168,9.185-7.337,13.712-2.193,4.576-4.14,9.189-5.787,13.711A132.886,132.886,0,0,0,4.2,182.1a118.493,118.493,0,0,0-2.533,13.7,109.816,109.816,0,0,0-.83,13.7,106.459,106.459,0,0,0,.923,13.692,108.78,108.78,0,0,0,2.731,13.689,116.9,116.9,0,0,0,4.593,13.686,131.437,131.437,0,0,0,6.51,13.684,152.97,152.97,0,0,0,8.484,13.68c3.163,4.559,6.7,9.16,10.512,13.673,3.849,4.556,8.087,9.153,12.6,13.663.287.315.548.59.821.862a22.6,22.6,0,0,0,3.66,2.965,23.909,23.909,0,0,0,4.18,2.151,28.5,28.5,0,0,0,4.68,1.392,36.671,36.671,0,0,0,5.151.684,57.344,57.344,0,0,0,11.581-.562,105.285,105.285,0,0,0,13.032-2.788c4.378-1.2,9.016-2.7,14.18-4.578,4.6-1.672,9.52-3.609,15.033-5.921,10.253-4.3,21.035-9.27,31.462-14.076,13.787-6.354,28.044-12.924,41.164-17.987,7.071-2.729,13.261-4.816,18.926-6.383,3.073-.85,6.023-1.55,8.77-2.083a77.6,77.6,0,0,1,8.2-1.167,40.826,40.826,0,0,1,7.051.049,55.91,55.91,0,0,1,7.344,1.19,93.823,93.823,0,0,1,15.394,5.122c10.5,4.4,21.621,10.6,32.373,16.6,7.278,4.057,14.8,8.252,22,11.813,3.87,1.913,7.347,3.5,10.63,4.848a96.085,96.085,0,0,0,10.211,3.6,57.812,57.812,0,0,0,9.659,1.948A40.4,40.4,0,0,0,346.968,303.171ZM191.587,6.082l.011,0ZM191.5,6.1l.017,0Zm-.077.021.011,0Zm-.164.045h0Zm-.08.022h0ZM65.407,85.5c9.13-9.105,18.676-17.75,28.38-25.7,7.493-6.138,15.131-11.9,22.8-17.207A374.534,374.534,0,0,0,65.407,85.5Zm-.048.047.041-.04Zm-.051.051.023-.023Zm-.054.053.011-.011Zm-.055.055h0ZM1.044,197.52q.1-.887.2-1.773.087-.707.184-1.417c-.064.474-.125.944-.184,1.417C1.175,196.337,1.107,196.93,1.044,197.52Zm0,0v0ZM293.571,283.1l-3.582-1.995c-10.743-5.99-21.85-12.183-32.332-16.578a93.428,93.428,0,0,0-15.324-5.1,55.431,55.431,0,0,0-7.288-1.182,40.411,40.411,0,0,0-6.977-.049,77.368,77.368,0,0,0-8.16,1.161c-2.736.53-5.675,1.229-8.737,2.076-5.651,1.563-11.829,3.646-18.886,6.37-13.107,5.058-27.359,11.626-41.14,17.977q-2.664,1.227-5.353,2.464,2.677-1.231,5.353-2.464c27.55-12.7,56.039-25.826,76.923-27.583,1.018-.085,2.051-.128,3.094-.128,17.512,0,38.494,11.7,58.826,23.035Q291.775,282.1,293.571,283.1Zm53.5,20.523a27.484,27.484,0,0,0,20.254-8.139,28.252,28.252,0,0,1-7.278,5.24,27.546,27.546,0,0,1-8.315,2.546,36.767,36.767,0,0,1-9.08.093,58.214,58.214,0,0,1-9.73-1.962l-.206-.059.205.059A51.922,51.922,0,0,0,347.072,303.619ZM47.588,306.3c-.234-.238-.461-.478-.691-.732l-.007-.006C47.125,305.823,47.353,306.064,47.588,306.3Z" transform="translate(0)" fill="url(#a)"/></g></g><g transform="translate(35.555 0)"><g transform="translate(0 0.001)"><path d="M296.815,0A76.442,76.442,0,0,1,311.46,1.335c18.526,3.616,49.534,9.668,81.282,25.07a224.573,224.573,0,0,1,46.35,29.94,234.415,234.415,0,0,1,43.4,48.564c53.7,79.573,45.343,120.478-42.6,208.423-43.044,43.044-95.962,40.1-151.986,36.988-59.275-3.295-120.568-6.7-178,42.265-15.921,13.575-31.024,20.642-44.89,21.005-12.681.332-24.1-4.9-33.929-15.543C20.4,386.471,11.9,368.616,6.5,346.41,1.279,324.921-.861,300.241.313,275.04c1.214-26.07,5.966-51.657,13.742-74,8.593-24.687,20.452-44.706,35.247-59.5,24.108-24.108,71.3-63.711,124.96-95.985C210.149,23.975,258.616,0,296.815,0Zm33.53,351.484c40.026,0,77.372-6.576,109.248-38.452,46.827-46.827,68.365-77.882,74.342-107.187,5.962-29.234-3.249-58.409-31.791-100.7C427.684,24.451,352.026,9.684,311.379,1.75c-39.6-7.727-96.3,19.754-136.9,44.17C120.854,78.174,73.693,117.751,49.6,141.842,21.166,170.279,3.355,218.835.737,275.06c-2.449,52.555,9.3,99.57,30.663,122.7,9.746,10.552,21.057,15.739,33.607,15.407,13.767-.361,28.781-7.394,44.627-20.9,25.762-21.966,54.792-35.316,88.747-40.811,30.042-4.862,60.294-3.181,89.55-1.554C302.311,350.7,316.49,351.484,330.345,351.484Z" transform="translate(0 0)" fill="url(#a)"/></g><g transform="translate(0 0)"><path d="M33.037,399.163a53.263,53.263,0,0,0,7.242,6.093,43.767,43.767,0,0,0,7.908,4.378,39.591,39.591,0,0,0,8.564,2.525,40.911,40.911,0,0,0,9.218.533c13.392-.72,27.965-7.719,43.314-20.806,3.544-3.022,7.2-5.918,10.855-8.608,3.575-2.629,7.259-5.137,10.951-7.455,3.6-2.261,7.314-4.406,11.035-6.377,3.623-1.918,7.36-3.728,11.107-5.376,3.64-1.6,7.4-3.1,11.166-4.453,3.652-1.311,7.425-2.524,11.214-3.606,3.66-1.045,7.445-2,11.249-2.837,3.662-.806,7.454-1.528,11.272-2.146,30.065-4.866,60.329-3.183,89.6-1.556,14.284.794,27.776,1.544,41.264,1.586,7.246.022,13.782-.164,19.982-.57,6.941-.454,13.3-1.171,19.441-2.19a149.961,149.961,0,0,0,18.822-4.343c3.113-.942,6.192-2,9.154-3.145,3.049-1.178,6.067-2.485,8.971-3.883,2.982-1.436,5.936-3.013,8.779-4.688,2.913-1.716,5.8-3.587,8.577-5.56,2.842-2.019,5.657-4.205,8.366-6.5,2.768-2.344,5.509-4.87,8.147-7.507,11.418-11.419,21-21.539,29.281-30.937,4.292-4.869,8.294-9.618,11.9-14.115,3.676-4.589,7.075-9.09,10.1-13.378,3.073-4.354,5.877-8.65,8.334-12.767,2.483-4.162,4.7-8.294,6.593-12.28a114.609,114.609,0,0,0,4.881-11.919,94.4,94.4,0,0,0,3.2-11.684,83.483,83.483,0,0,0,1.467-23.18,92.305,92.305,0,0,0-1.679-11.759,110.363,110.363,0,0,0-3.255-12.044c-1.325-4.017-2.942-8.208-4.806-12.457-1.826-4.162-3.958-8.534-6.335-13a316.853,316.853,0,0,0-17.151-28.1c-4.459-6.607-9.219-12.988-14.15-18.969-4.718-5.723-9.724-11.239-14.878-16.392a220.039,220.039,0,0,0-37.9-30.362c-6.148-3.9-12.615-7.566-19.221-10.9-6.07-3.065-12.437-5.941-18.925-8.548A285.453,285.453,0,0,0,341.16,8.345c-10.966-2.825-20.85-4.812-30.034-6.6a75.5,75.5,0,0,0-14-1.316,107.608,107.608,0,0,0-15.316,1.088,153.227,153.227,0,0,0-16.414,3.269c-5.514,1.4-11.333,3.156-17.3,5.225a325,325,0,0,0-36.381,15.4C199.8,31.261,187.238,38.15,174.379,45.884c-11.961,7.194-24.271,15.173-36.587,23.713-11.495,7.971-22.979,16.42-34.136,25.112-10.518,8.194-20.606,16.5-29.984,24.672-9.01,7.856-17.129,15.39-24.132,22.392a121.155,121.155,0,0,0-10.987,12.684A144.5,144.5,0,0,0,29,168.895a186.584,186.584,0,0,0-14.867,33.023,245.686,245.686,0,0,0-9.386,36.7,283.73,283.73,0,0,0-4.1,38.147,277.753,277.753,0,0,0,.988,37.362A224.644,224.644,0,0,0,7.511,348.47a148.377,148.377,0,0,0,10.543,29.09,82.2,82.2,0,0,0,14.984,21.6m-.3.3c-45.974-45.975-46.217-195.268,16.5-257.987,55.1-55.1,190.7-154.061,261.967-140.15C346.325,8.18,403.843,20.2,453.028,69.388a238.823,238.823,0,0,1,29.079,35.423c53.614,79.439,45.439,120.138-42.578,208.155s-217.616-16.558-329.972,79.24C77.265,419.74,51.281,418.005,32.738,399.462Z" transform="translate(0.213 0.217)" fill="#1f354d"/><path d="M296.816,0a76.442,76.442,0,0,1,14.645,1.335c32.051,6.256,91.711,17.9,141.93,68.121a240.315,240.315,0,0,1,29.1,35.455c53.7,79.572,45.342,120.477-42.6,208.422-43.044,43.044-95.961,40.1-151.986,36.988-59.276-3.295-120.568-6.7-178,42.264-15.457,13.179-30.157,20.23-43.692,20.957-12.4.668-23.649-3.947-33.415-13.713C21.713,388.74,12.828,371.111,7.109,348.846,1.589,327.358-.789,302.5.23,276.957c1.054-26.388,5.729-52.332,13.519-75.028,8.613-25.091,20.575-45.407,35.554-60.386,24.108-24.108,71.3-63.712,124.96-95.985C210.15,23.975,258.617,0,296.816,0Zm68.533,15.543C344.2,8.157,325.215,4.451,311.38,1.75A76.178,76.178,0,0,0,296.8.422c-26.9,0-58.931,11.938-88.056,26.546q1.551-.778,3.087-1.532A325.222,325.222,0,0,1,248.24,10.024c5.97-2.07,11.8-3.83,17.314-5.23a153.38,153.38,0,0,1,16.437-3.274A108.378,108.378,0,0,1,297.338.431,75.676,75.676,0,0,1,311.38,1.75c9.186,1.793,19.072,3.78,30.046,6.607C349.848,10.528,357.76,12.9,365.348,15.543ZM330.36,351.062c6.784,0,12.95-.187,18.814-.572,6.935-.454,13.288-1.17,19.42-2.188a149.726,149.726,0,0,0,18.795-4.337c3.107-.941,6.182-2,9.139-3.14,3.044-1.177,6.057-2.481,8.955-3.877,2.978-1.434,5.926-3.008,8.763-4.68,2.908-1.713,5.788-3.58,8.562-5.551,2.838-2.016,5.649-4.2,8.353-6.489,2.765-2.341,5.5-4.863,8.134-7.5,11.418-11.419,20.993-21.535,29.271-30.927,4.289-4.866,8.29-9.613,11.889-14.107,3.674-4.587,7.07-9.084,10.094-13.368,3.07-4.349,5.871-8.64,8.325-12.753,2.479-4.157,4.694-8.282,6.584-12.262a114.321,114.321,0,0,0,4.872-11.9,94.175,94.175,0,0,0,3.191-11.658,83.233,83.233,0,0,0,1.463-23.122,92.076,92.076,0,0,0-1.675-11.731,110.242,110.242,0,0,0-3.249-12.021c-1.324-4.012-2.938-8.2-4.8-12.438-1.823-4.153-3.951-8.521-6.328-12.981a316.419,316.419,0,0,0-17.139-28.085c-4.457-6.6-9.213-12.979-14.138-18.952-4.713-5.717-9.714-11.227-14.864-16.377A219.839,219.839,0,0,0,414.93,39.721c-6.145-3.9-12.606-7.56-19.2-10.891-6.064-3.062-12.425-5.936-18.908-8.54a285.194,285.194,0,0,0-35.5-11.521c-10.963-2.825-20.842-4.81-30.021-6.6A75.265,75.265,0,0,0,297.336.854,107.2,107.2,0,0,0,282.05,1.94,153.25,153.25,0,0,0,265.658,5.2c-5.507,1.4-11.321,3.153-17.279,5.22a324.86,324.86,0,0,0-36.357,15.391c-11.913,5.852-24.469,12.738-37.321,20.468-11.958,7.192-24.264,15.168-36.575,23.706C126.637,77.956,115.155,86.4,104,95.094c-10.519,8.2-20.6,16.494-29.975,24.665-9,7.852-17.12,15.382-24.12,22.382A121.021,121.021,0,0,0,38.934,154.8,144.253,144.253,0,0,0,29.4,169.218,186.369,186.369,0,0,0,14.551,202.2a245.533,245.533,0,0,0-9.378,36.668,283.574,283.574,0,0,0-4.1,38.119,277.514,277.514,0,0,0,.987,37.333,224.429,224.429,0,0,0,5.866,34.312,148.2,148.2,0,0,0,10.527,29.048A81.959,81.959,0,0,0,33.4,399.23a52.941,52.941,0,0,0,7.213,6.069,43.562,43.562,0,0,0,7.869,4.357A39.42,39.42,0,0,0,57,412.167a40.777,40.777,0,0,0,9.17.53c13.345-.717,27.875-7.7,43.188-20.756,3.546-3.024,7.2-5.923,10.867-8.618,3.581-2.633,7.269-5.144,10.964-7.463,3.6-2.262,7.32-4.41,11.048-6.385,3.629-1.921,7.37-3.732,11.121-5.383,3.644-1.6,7.405-3.1,11.18-4.458,3.655-1.312,7.433-2.527,11.227-3.611,3.664-1.047,7.454-2,11.262-2.84,3.666-.807,7.462-1.529,11.284-2.147,30.087-4.87,60.363-3.187,89.641-1.559,14.281.794,27.77,1.544,41.252,1.585ZM200.442,31.243l.009,0ZM113.51,87.272c8.045-6.063,16.207-11.968,24.373-17.631,12.319-8.543,24.633-16.524,36.6-23.721,8.815-5.3,17.494-10.208,25.92-14.656-9.1,4.805-17.833,9.792-25.92,14.656A709.132,709.132,0,0,0,113.51,87.272ZM455.783,72.494q-1.337-1.384-2.692-2.739-2.134-2.134-4.288-4.173,2.174,2.06,4.287,4.173Q454.444,71.108,455.783,72.494ZM49.7,141.741l.008-.008Zm-.049.05.026-.026Zm-.05.05.038-.038Zm-.042.042.042-.042Zm464.533,63.169a85.774,85.774,0,0,0-1.225-37.975q.469,1.889.854,3.744a92.363,92.363,0,0,1,1.682,11.786,83.617,83.617,0,0,1-1.311,22.445Zm-20.294,45.3c10.726-15.935,17.053-30.035,19.973-43.728a95.145,95.145,0,0,1-3.043,10.928,114.877,114.877,0,0,1-4.889,11.94c-1.9,3.993-4.117,8.13-6.6,12.3C497.575,244.581,495.755,247.447,493.8,250.357ZM7.154,347.3a226.371,226.371,0,0,1-5.513-32.933,278,278,0,0,1-.988-37.39c.342-8.556,1.064-17.089,2.156-25.494C1.725,259.8,1,268.321.653,276.974-.341,301.906,1.9,326.183,7.154,347.3Zm425.383-27.69q3.119-2.7,6.171-5.7C436.7,315.887,434.627,317.8,432.537,319.607Zm-.04.035.034-.029Zm-2.849,2.394.027-.022Zm-4.246,3.316q2.128-1.589,4.232-3.3Q427.548,323.749,425.4,325.352Zm-53.354,22.77q5.96-1.118,11.8-2.7C380.049,346.458,376.1,347.36,372.049,348.121Zm-122.431.171a323.216,323.216,0,0,0-38.543,1.477A323.113,323.113,0,0,1,249.617,348.292Zm41.619,1.789-3.305-.184q-5.44-.3-10.922-.594,5.483.286,10.922.594ZM63.956,413.223c12.444,0,27.6-5.544,45.677-20.96,25.3-21.571,53.749-34.832,86.919-40.507-3.195.546-6.36,1.163-9.433,1.839-3.8.836-7.58,1.79-11.236,2.834-3.786,1.081-7.554,2.294-11.2,3.6-3.765,1.351-7.518,2.848-11.153,4.447-3.741,1.647-7.474,3.453-11.093,5.37-3.719,1.97-7.427,4.112-11.022,6.37-3.685,2.314-7.365,4.819-10.938,7.445-3.656,2.689-7.3,5.582-10.843,8.6-15.385,13.118-30,20.134-43.44,20.856a41.154,41.154,0,0,1-9.266-.535,39.855,39.855,0,0,1-8.61-2.538,43.565,43.565,0,0,1-6.951-3.727A40.513,40.513,0,0,0,63.956,413.223ZM36.377,402.561q-.917-.784-1.816-1.622Q35.444,401.764,36.377,402.561Z" transform="translate(0 0)" fill="url(#a)"/></g></g><g transform="translate(0 49.977)"><g transform="translate(0 0)"><path d="M452.159,0c12.229,0,23.257,5.23,32.8,15.558,10.691,11.575,19.194,29.43,24.589,51.636,5.221,21.49,7.361,46.169,6.188,71.371-1.214,26.07-5.966,51.658-13.742,74-8.594,24.687-20.453,44.706-35.249,59.5-24.108,24.108-71.3,63.711-124.961,95.985-40.66,24.455-97.469,51.978-137.2,44.223-18.526-3.616-49.533-9.669-81.28-25.071a224.557,224.557,0,0,1-46.35-29.94,234.414,234.414,0,0,1-43.4-48.564c-53.7-79.572-45.343-120.478,42.6-208.423,43.043-43.043,95.96-40.1,151.985-36.987,59.275,3.294,120.569,6.7,178-42.265C422.057,7.445,437.16.378,451.026.015Q451.594,0,452.159,0ZM219.241,413.183c38.092,0,86.481-23.943,122.321-45.5,53.628-32.253,100.789-71.83,124.88-95.921,28.437-28.437,46.249-76.994,48.867-133.219,2.447-52.555-9.3-99.57-30.664-122.7C474.9,5.293,463.6.113,451.038.438c-13.767.361-28.782,7.394-44.627,20.9l-.137-.161.137.161c-25.762,21.967-54.791,35.316-88.746,40.812-30.043,4.862-60.295,3.18-89.551,1.554C172.186,60.6,119.362,57.662,76.452,100.572,29.624,147.4,8.085,178.453,2.109,207.758c-5.962,29.234,3.248,58.409,31.79,100.7,54.461,80.694,130.119,95.462,170.765,103.4A76.109,76.109,0,0,0,219.241,413.183Z" transform="translate(0 0)" fill="url(#a)"/></g><g transform="translate(0 0)"><path d="M482.611,14.013a53.276,53.276,0,0,0-7.242-6.093,43.766,43.766,0,0,0-7.908-4.377A39.615,39.615,0,0,0,458.9,1.017a40.931,40.931,0,0,0-9.218-.532C436.287,1.2,421.714,8.2,406.365,21.291c-3.544,3.022-7.2,5.918-10.855,8.608-3.575,2.628-7.259,5.136-10.951,7.455-3.6,2.26-7.314,4.406-11.035,6.377-3.623,1.918-7.36,3.728-11.107,5.376-3.64,1.6-7.4,3.1-11.167,4.453-3.652,1.311-7.425,2.524-11.214,3.606-3.659,1.045-7.444,2-11.249,2.837-3.661.806-7.454,1.528-11.272,2.146-30.065,4.866-60.329,3.183-89.6,1.556-14.284-.794-27.776-1.544-41.263-1.586-7.246-.022-13.782.164-19.982.57-6.941.454-13.3,1.171-19.441,2.19a149.949,149.949,0,0,0-18.821,4.344c-3.113.942-6.193,2-9.154,3.145-3.049,1.178-6.067,2.485-8.971,3.883-2.982,1.436-5.936,3.013-8.778,4.688-2.913,1.716-5.8,3.587-8.577,5.56-2.842,2.019-5.657,4.206-8.367,6.5-2.768,2.343-5.509,4.869-8.147,7.507-11.419,11.419-21,21.539-29.281,30.937-4.292,4.87-8.294,9.618-11.9,14.115-3.676,4.589-7.075,9.09-10.1,13.378-3.073,4.354-5.877,8.65-8.334,12.767-2.482,4.162-4.7,8.294-6.593,12.28A114.47,114.47,0,0,0,5.332,195.9a94.525,94.525,0,0,0-3.2,11.684A84.91,84.91,0,0,0,.587,219.166a84.065,84.065,0,0,0,.08,11.6,92.262,92.262,0,0,0,1.679,11.759A110.561,110.561,0,0,0,5.6,254.571c1.326,4.017,2.943,8.208,4.807,12.457,1.826,4.161,3.957,8.533,6.334,13a316.721,316.721,0,0,0,17.151,28.1c4.459,6.607,9.219,12.988,14.15,18.969,4.718,5.723,9.724,11.238,14.878,16.392a220.082,220.082,0,0,0,37.9,30.362c6.149,3.9,12.616,7.566,19.221,10.9,6.07,3.065,12.437,5.941,18.925,8.548a285.44,285.44,0,0,0,35.524,11.53c10.966,2.825,20.85,4.812,30.034,6.6a75.518,75.518,0,0,0,14,1.316,107.627,107.627,0,0,0,15.317-1.088,153.233,153.233,0,0,0,16.415-3.269c5.513-1.4,11.332-3.156,17.3-5.225a324.977,324.977,0,0,0,36.381-15.4c11.916-5.853,24.477-12.742,37.337-20.476,11.962-7.194,24.271-15.172,36.587-23.713,11.494-7.971,22.979-16.42,34.136-25.113,10.518-8.194,20.606-16.5,29.984-24.672,9.01-7.856,17.129-15.39,24.131-22.392A121.182,121.182,0,0,0,477.1,258.718a144.529,144.529,0,0,0,9.548-14.437,186.589,186.589,0,0,0,14.867-33.023,245.734,245.734,0,0,0,9.386-36.7,283.857,283.857,0,0,0,4.1-38.147,277.7,277.7,0,0,0-.988-37.362A224.551,224.551,0,0,0,508.137,64.7a148.352,148.352,0,0,0-10.543-29.09,82.182,82.182,0,0,0-14.983-21.6m.3-.3c45.974,45.975,46.217,195.268-16.5,257.987-55.1,55.1-190.7,154.061-261.967,140.15C169.322,405,111.8,392.973,62.62,343.788a238.8,238.8,0,0,1-29.079-35.423C-20.073,228.925-11.9,188.226,76.118,100.21S293.734,116.767,406.09,20.969C438.383-6.565,464.367-4.83,482.91,13.713Z" transform="translate(0.183 0.212)" fill="#1f354d"/><path d="M452.165,0c11.485,0,21.93,4.626,31.078,13.776,11.088,11.089,19.973,28.718,25.693,50.983,5.52,21.488,7.9,46.346,6.878,71.889-1.054,26.388-5.729,52.332-13.519,75.028-8.613,25.09-20.575,45.407-35.554,60.386-24.108,24.108-71.3,63.712-124.961,95.985-40.66,24.455-97.47,51.978-137.2,44.223-32.051-6.256-91.711-17.9-141.93-68.121a240.276,240.276,0,0,1-29.1-35.454c-53.7-79.573-45.343-120.478,42.6-208.423C108.133,68.291,145.568,61.7,185.675,61.695c13.874,0,28.063.789,42.463,1.589,59.276,3.3,120.569,6.7,178-42.264C421.594,7.841,436.293.79,449.828.063Q451,0,452.165,0Zm22.526,7.3c-14.7-9.677-36.734-12.319-67.15,13.093,14.971-12.5,29.2-19.2,42.311-19.9a41.151,41.151,0,0,1,9.265.535,39.836,39.836,0,0,1,8.61,2.539A43.509,43.509,0,0,1,474.691,7.3ZM219.172,412.752a107.981,107.981,0,0,0,14.822-1.087,153.169,153.169,0,0,0,16.392-3.265c5.509-1.4,11.323-3.154,17.279-5.219a324.82,324.82,0,0,0,36.357-15.392c11.911-5.85,24.467-12.737,37.321-20.467,11.958-7.192,24.264-15.167,36.575-23.706,11.492-7.969,22.974-16.416,34.127-25.105,10.516-8.193,20.6-16.491,29.976-24.665,9-7.852,17.12-15.382,24.121-22.382A120.966,120.966,0,0,0,477.11,258.8a144.336,144.336,0,0,0,9.534-14.415,186.379,186.379,0,0,0,14.85-32.985,245.445,245.445,0,0,0,9.378-36.669,283.615,283.615,0,0,0,4.1-38.119,277.383,277.383,0,0,0-.987-37.333,224.391,224.391,0,0,0-5.866-34.311,148.156,148.156,0,0,0-10.527-29.049,81.97,81.97,0,0,0-14.944-21.546,53.007,53.007,0,0,0-7.213-6.069,43.529,43.529,0,0,0-7.869-4.356,39.4,39.4,0,0,0-8.518-2.512,40.652,40.652,0,0,0-9.17-.529c-13.344.716-27.875,7.7-43.188,20.755-3.548,3.026-7.2,5.925-10.867,8.618-3.578,2.631-7.267,5.142-10.964,7.463-3.6,2.263-7.322,4.411-11.049,6.385-3.627,1.921-7.369,3.732-11.121,5.383-3.644,1.6-7.405,3.1-11.18,4.459-3.656,1.312-7.433,2.526-11.227,3.611-3.665,1.047-7.454,2-11.262,2.84-3.662.806-7.458,1.529-11.283,2.148-30.088,4.869-60.363,3.186-89.641,1.559-14.282-.794-27.77-1.544-41.252-1.585-7.238-.025-13.772.164-19.967.57-6.933.454-13.286,1.169-19.42,2.188a149.719,149.719,0,0,0-18.795,4.337c-3.105.94-6.18,2-9.139,3.14-3.043,1.176-6.056,2.48-8.955,3.876-2.978,1.435-5.926,3.009-8.763,4.68-2.908,1.713-5.788,3.581-8.562,5.551-2.838,2.016-5.647,4.2-8.352,6.489-2.762,2.339-5.5,4.86-8.134,7.5C65.333,112.287,55.759,122.4,47.479,131.8c-4.285,4.861-8.285,9.608-11.889,14.107-3.673,4.586-7.069,9.083-10.093,13.368-3.073,4.353-5.874,8.644-8.325,12.753-2.479,4.156-4.694,8.282-6.584,12.263a114.336,114.336,0,0,0-4.872,11.9,94.374,94.374,0,0,0-3.191,11.658,83.25,83.25,0,0,0-1.463,23.122A91.974,91.974,0,0,0,2.736,242.7a110.233,110.233,0,0,0,3.248,12.021c1.322,4.008,2.937,8.193,4.8,12.438,1.821,4.152,3.95,8.52,6.327,12.98a316.483,316.483,0,0,0,17.139,28.085c4.456,6.6,9.212,12.978,14.138,18.952C53.1,332.891,58.1,338.4,63.253,343.551a219.786,219.786,0,0,0,37.862,30.333c6.142,3.894,12.6,7.558,19.2,10.891,6.064,3.063,12.425,5.936,18.908,8.54a285.2,285.2,0,0,0,35.5,11.522c10.955,2.823,20.838,4.809,30.021,6.6a75.3,75.3,0,0,0,13.963,1.312ZM482.393,13.532q-1.6-1.555-3.359-3.02Q480.745,11.928,482.393,13.532Zm.028.027-.023-.022Zm.523.517-.022-.022Zm-75.425,6.331,0,0ZM278.774,65.322a267.809,267.809,0,0,0,38.889-3.169c3.818-.618,7.607-1.339,11.261-2.143,3.8-.836,7.579-1.79,11.236-2.834,3.785-1.081,7.554-2.294,11.2-3.6,3.765-1.351,7.518-2.848,11.153-4.447,3.742-1.647,7.475-3.454,11.093-5.37,3.718-1.969,7.427-4.112,11.022-6.369,3.688-2.315,7.368-4.821,10.938-7.446,2.45-1.8,4.9-3.7,7.311-5.657C378,44.5,350.075,56.907,317.664,62.153A267.924,267.924,0,0,1,278.774,65.322Zm-90.989-3.2c-.695,0-1.392-.006-2.086-.006h-.008l1.149,0Zm.042,0h0ZM508,62.874l0-.017Zm7.533,69.23c.581-23.905-1.827-47.064-7.011-67.24q-.252-.984-.513-1.953.261.971.513,1.953A224.712,224.712,0,0,1,514.4,99.241,276.018,276.018,0,0,1,515.536,132.1ZM132.327,68.146c3.7-1,7.549-1.885,11.5-2.63Q138.015,66.611,132.327,68.146Zm-34.6,15.2.008-.005Zm-1.556,1.015q.76-.5,1.526-1Q96.929,83.855,96.168,84.361Zm-.052.034.041-.028ZM85.059,92.674c1.972-1.654,4-3.252,6.049-4.768Q88.054,90.164,85.059,92.674ZM85,92.721l.051-.043Zm-.06.051.046-.038Zm-.063.053L84.9,92.8Zm-.055.046.021-.018Zm-.058.049.025-.021Zm-.082.069.031-.027Zm-.066.056.043-.037Zm-7.845,7.2c2.543-2.526,5.177-4.945,7.835-7.2Q80.637,96.417,76.774,100.25ZM515.22,140.332v0Zm-1.964,21.638q1.379-10.631,1.964-21.637C514.836,147.594,514.179,154.828,513.255,161.97ZM3.214,246.678q-.491-1.968-.892-3.9A92.271,92.271,0,0,1,.639,231a83.688,83.688,0,0,1,1.47-23.239,94.867,94.867,0,0,1,3.206-11.71,114.671,114.671,0,0,1,4.89-11.94c1.9-3.993,4.117-8.131,6.6-12.3,1.693-2.837,3.551-5.761,5.55-8.732-11,16.309-17.4,30.693-20.249,44.68A85.739,85.739,0,0,0,3.214,246.678Zm32.847,64.93q-1.091-1.566-2.161-3.151-.447-.662-.887-1.319.441.658.887,1.319Q34.97,310.043,36.061,311.608Zm.013.019-.006-.008Zm306.35,55.538a710.081,710.081,0,0,0,60.027-40.77c-8.016,6.04-16.151,11.924-24.291,17.569C366.136,352.3,354.119,360.1,342.424,367.165ZM67.471,348.241q-2.291-2.165-4.517-4.391-1.5-1.5-2.976-3.033,1.477,1.534,2.976,3.033Q65.2,346.1,67.471,348.241Zm271.325,21.1.024-.014Zm-23.225,13.04c8.09-4.268,15.882-8.68,23.194-13.022C330.884,374.036,323.127,378.392,315.57,382.378Zm-.056.03.041-.021Zm-96.273,30.775c27.2,0,59.649-12.207,89.032-27.037q-2.043,1.031-4.063,2.023A325.272,325.272,0,0,1,267.8,403.581c-5.968,2.07-11.793,3.829-17.314,5.23a153.508,153.508,0,0,1-16.438,3.274,107.254,107.254,0,0,1-15.347,1.09,76.315,76.315,0,0,1-13.422-1.2A76.708,76.708,0,0,0,219.241,413.182Zm-15.173-1.445c-9.021-1.764-18.72-3.727-29.449-6.49-8.377-2.159-16.248-4.519-23.8-7.143C171.615,405.357,190.313,409.052,204.067,411.738Zm1.206.232-.016,0Z" transform="translate(0 0)" fill="url(#a)"/></g></g></g></svg>